<?xml version="1.0" standalone="no"?>
<!DOCTYPE svg PUBLIC "-//W3C//DTD SVG 20010904//EN"
 "http://www.w3.org/TR/2001/REC-SVG-20010904/DTD/svg10.dtd">
<svg version="1.0" xmlns="http://www.w3.org/2000/svg"
 width="200.000000pt" height="50.000000pt" viewBox="0 0 200.000000 50.000000"
 preserveAspectRatio="xMidYMid meet">

<g transform="translate(0.000000,50.000000) scale(0.100000,-0.100000)"
fill="#000000" stroke="none">
<path d="M638 453 c6 -2 18 -2 25 0 6 3 1 5 -13 5 -14 0 -19 -2 -12 -5z"/>
<path d="M192 430 c0 -14 2 -19 5 -12 2 6 2 18 0 25 -3 6 -5 1 -5 -13z"/>
<path d="M324 433 c3 -10 10 -54 16 -98 6 -44 18 -118 26 -164 18 -108 19
-101 -20 -101 -33 0 -35 2 -42 45 -6 44 -7 45 -44 45 -40 0 -50 -14 -50 -67 0
-19 -5 -23 -34 -23 -28 0 -35 4 -39 22 -4 21 -4 21 -6 -3 -1 -20 7 -29 34 -42
20 -9 53 -17 75 -17 37 0 39 2 46 37 6 33 8 35 15 15 10 -26 68 -52 119 -52
l37 0 -12 73 c-7 39 -21 127 -31 194 -18 121 -18 121 -51 137 -42 20 -45 20
-39 -1z"/>
<path d="M994 435 c-3 -8 -4 -20 -2 -27 3 -7 7 -1 10 15 6 29 1 36 -8 12z"/>
<path d="M1151 278 c36 -224 37 -208 -8 -208 l-38 -1 35 -19 c19 -11 54 -19
78 -20 39 0 42 2 37 22 -2 13 -16 100 -31 193 -26 168 -27 171 -56 188 -16 9
-33 17 -37 17 -4 0 5 -78 20 -172z"/>
<path d="M1361 433 c-1 -24 42 -53 79 -53 26 0 25 -10 -5 -70 -14 -27 -25 -53
-24 -57 0 -4 18 28 39 72 l39 80 -56 5 c-44 4 -58 9 -64 25 -7 19 -8 19 -8 -2z"/>
<path d="M1560 428 c0 -12 -27 -80 -61 -151 -90 -192 -87 -177 -34 -177 29 0
45 4 45 13 0 6 27 70 60 141 33 71 60 137 60 146 0 8 -13 23 -29 33 -37 22
-41 21 -41 -5z"/>
<path d="M1732 259 l-2 -195 35 -17 c20 -9 54 -17 75 -17 l40 0 0 195 0 194
-30 16 c-16 8 -31 15 -35 15 -3 0 -5 -85 -5 -190 l0 -190 -35 0 -35 0 -3 193
-2 192 -3 -196z"/>
<path d="M556 418 c-13 -18 -16 -52 -16 -163 0 -159 4 -171 73 -206 33 -18 53
-21 109 -17 38 3 78 12 93 22 22 14 25 23 25 74 0 57 -1 59 -35 75 -20 9 -37
17 -38 17 -1 0 0 -23 2 -51 4 -60 -13 -84 -70 -99 -46 -13 -118 1 -136 26 -20
28 -18 293 3 322 8 12 13 22 10 22 -3 0 -12 -10 -20 -22z"/>
<path d="M753 423 c9 -11 17 -35 17 -56 0 -36 -1 -37 -40 -37 -40 0 -40 0 -40
39 0 45 -10 56 -46 47 l-25 -7 3 -152 c3 -151 3 -152 27 -155 13 -2 28 1 33 6
5 5 9 55 9 110 0 109 2 114 49 87 14 -8 42 -14 63 -15 l37 0 0 43 c0 48 -11
63 -70 92 -35 18 -35 18 -17 -2z"/>
<path d="M182 370 c0 -14 2 -19 5 -12 2 6 2 18 0 25 -3 6 -5 1 -5 -13z"/>
<path d="M257 370 c-7 -25 -27 -148 -27 -162 0 -5 14 -8 30 -8 34 0 34 -4 16
110 -10 61 -15 78 -19 60z"/>
<path d="M1061 389 c-1 -7 -20 -114 -27 -156 -5 -31 -3 -33 26 -33 25 0 30 4
29 23 0 24 -26 175 -28 166z"/>
<path d="M982 360 c0 -14 2 -19 5 -12 2 6 2 18 0 25 -3 6 -5 1 -5 -13z"/>
<path d="M172 315 c0 -16 2 -22 5 -12 2 9 2 23 0 30 -3 6 -5 -1 -5 -18z"/>
<path d="M972 305 c0 -16 2 -22 5 -12 2 9 2 23 0 30 -3 6 -5 -1 -5 -18z"/>
<path d="M162 260 c0 -14 2 -19 5 -12 2 6 2 18 0 25 -3 6 -5 1 -5 -13z"/>
<path d="M962 250 c0 -14 2 -19 5 -12 2 6 2 18 0 25 -3 6 -5 1 -5 -13z"/>
<path d="M152 200 c0 -14 2 -19 5 -12 2 6 2 18 0 25 -3 6 -5 1 -5 -13z"/>
<path d="M952 195 c0 -16 2 -22 5 -12 2 9 2 23 0 30 -3 6 -5 -1 -5 -18z"/>
<path d="M1362 155 c-48 -100 -16 -125 158 -125 102 0 110 1 110 19 0 25 -62
64 -92 58 l-23 -4 23 -2 c12 0 22 -8 22 -16 0 -12 -18 -15 -105 -15 -120 0
-124 4 -84 81 11 23 19 43 17 45 -3 2 -14 -17 -26 -41z"/>
<path d="M142 145 c0 -16 2 -22 5 -12 2 9 2 23 0 30 -3 6 -5 -1 -5 -18z"/>
<path d="M942 135 c0 -16 2 -22 5 -12 2 9 2 23 0 30 -3 6 -5 -1 -5 -18z"/>
<path d="M1016 115 c-7 -43 -9 -45 -41 -45 -24 0 -35 5 -38 18 -4 14 -5 13 -6
-4 -1 -26 54 -54 108 -54 40 0 51 11 51 53 0 18 2 19 10 7 8 -12 10 -12 10 5
0 51 -11 65 -50 65 -37 0 -38 -1 -44 -45z"/>
</g>
</svg>
